<svg width="24" height="24" viewBox="0 0 24 24" fill="none" xmlns="http://www.w3.org/2000/svg">
<path d="M11 3.9997H7.2C6.0799 3.9997 5.51984 3.9997 5.09202 4.21768C4.71569 4.40943 4.40973 4.71539 4.21799 5.09172C4 5.51954 4 6.07959 4 7.1997V16.7997C4 17.9198 4 18.4799 4.21799 18.9077C4.40973 19.284 4.71569 19.59 5.09202 19.7817C5.51984 19.9997 6.0799 19.9997 7.2 19.9997H16.8C17.9201 19.9997 18.4802 19.9997 18.908 19.7817C19.2843 19.59 19.5903 19.284 19.782 18.9077C20 18.4799 20 17.9198 20 16.7997V12.4997M15.5 5.4997L18.3284 8.32812M10.7627 10.237L17.411 3.58872C18.192 2.80767 19.4584 2.80767 20.2394 3.58872C21.0205 4.36976 21.0205 5.63609 20.2394 6.41714L13.3774 13.2791C12.6158 14.0408 12.235 14.4216 11.8012 14.7244C11.4162 14.9932 11.0009 15.2159 10.564 15.3879C10.0717 15.5817 9.54378 15.6882 8.48793 15.9012L8 15.9997L8.04745 15.6675C8.21536 14.4922 8.29932 13.9045 8.49029 13.3558C8.65975 12.8689 8.89125 12.4059 9.17906 11.9783C9.50341 11.4963 9.92319 11.0765 10.7627 10.237Z" stroke="#98A2B3" stroke-width="1.5" stroke-linecap="round" stroke-linejoin="round"/>
</svg>
