<svg width="18" height="16" viewBox="0 0 18 16" fill="none" xmlns="http://www.w3.org/2000/svg">
<path d="M13.1667 12.1667H13.175M13.5 9.66671H14C14.7766 9.66671 15.1649 9.66671 15.4711 9.79357C15.8795 9.96273 16.204 10.2872 16.3731 10.6956C16.5 11.0019 16.5 11.3901 16.5 12.1667C16.5 12.9433 16.5 13.3316 16.3731 13.6378C16.204 14.0462 15.8795 14.3707 15.4711 14.5398C15.1649 14.6667 14.7766 14.6667 14 14.6667H4C3.22343 14.6667 2.83515 14.6667 2.52886 14.5398C2.12048 14.3707 1.79602 14.0462 1.62687 13.6378C1.5 13.3316 1.5 12.9433 1.5 12.1667C1.5 11.3901 1.5 11.0019 1.62687 10.6956C1.79602 10.2872 2.12048 9.96273 2.52886 9.79357C2.83515 9.66671 3.22343 9.66671 4 9.66671H4.5M9 10.5V1.33337M9 10.5L6.5 8.00004M9 10.5L11.5 8.00004" stroke="#667085" stroke-width="1.5" stroke-linecap="round" stroke-linejoin="round"/>
</svg>
